<svg xmlns="http://www.w3.org/2000/svg" viewBox="0 0 196 196">
    <path d="M196,61.25V196H0V61.25L18.34,15.4A24.49,24.49,0,0,1,41.09,0H154.91a24.49,24.49,0,0,1,22.75,15.4ZM171.5,171.5V85.75H134.75v49H61.25v-49H24.5V171.5ZM169.61,61.25,154.91,24.5H41.09L26.39,61.25Zm-59.36,49V85.75H85.75v24.5Z" />
    <polygon fill="#00e6cb" points="171.5 85.75 171.5 171.5 24.5 171.5 24.5 85.75 61.25 85.75 61.25 134.75 134.75 134.75 134.75 85.75 171.5 85.75" />
    <polygon fill="#00e6cb" points="154.91 24.5 169.61 61.25 26.39 61.25 41.09 24.5 154.91 24.5" />
    <rect fill="#00e6cb" x="85.75" y="85.75" width="24.5" height="24.5" />
</svg>