<svg xmlns="http://www.w3.org/2000/svg" viewBox="0 0 169 169"><path d="M0,164.61V54.46L15.81,17a20.34,20.34,0,0,1,7.77-9.15A22,22,0,0,1,35.43,4.39h98.14a22,22,0,0,1,11.85,3.44A20.34,20.34,0,0,1,153.19,17L169,54.46V164.61Zm158-10.72V68.14H121.25v49H47.75v-49H11v85.75ZM156.11,53.64l-14.7-36.75H27.59L12.89,53.64Zm-59.36,39V68.14H72.25v24.5Z"/><polygon points="156.11 53.64 12.89 53.64 27.59 16.89 141.41 16.89 156.11 53.64" fill="#00e6cb"/><rect x="72.25" y="68.14" width="24.5" height="24.5" fill="#00e6cb"/><polygon points="11 153.89 11 68.14 47.75 68.14 47.75 117.14 121.25 117.14 121.25 68.14 158 68.14 158 153.89 11 153.89" fill="#00e6cb"/></svg>