<svg width="20" height="20" viewBox="0 0 20 20" fill="none" xmlns="http://www.w3.org/2000/svg">
<path d="M7.91668 1.33333H5.66668L3.51001 16.6667H7.33334L8.13001 11H11.8333C12.4681 11 13.0966 10.875 13.683 10.6321C14.2694 10.3892 14.8022 10.0332 15.251 9.58434C15.6998 9.13553 16.0559 8.60271 16.2988 8.0163C16.5417 7.42989 16.6667 6.80138 16.6667 6.16666C16.6667 4.88478 16.1575 3.6554 15.251 2.74898C14.3446 1.84255 13.1152 1.33333 11.8333 1.33333H7.91668Z" stroke="white" stroke-width="2" stroke-linecap="round" stroke-linejoin="round"/>
<path d="M7.33333 16.7167C7.17333 17.83 7 18.6667 7 18.6667H10.44L11.1067 14.0333H14.2833C15.3425 14.0467 16.3637 13.6394 17.123 12.9007C17.8823 12.1621 18.3175 11.1525 18.3333 10.0933C18.3326 9.49527 18.1946 8.90535 17.9299 8.36904C17.6652 7.83273 17.2809 7.36435 16.8067 7" stroke="white" stroke-width="2" stroke-linecap="round" stroke-linejoin="round"/>
</svg>
